HIERARCHY
ROOT Hips
{
	OFFSET 0.00000 0.00000 0.00000
	CHANNELS 6 Xposition Yposition Zposition Zrotation Yrotation Xrotation 
	JOINT LHipJoint
	{
		OFFSET 0 0 0
		CHANNELS 3 Zrotation Yrotation Xrotation
		JOINT LeftHip
		{
			OFFSET 1.62067 -1.77917 0.70989
			CHANNELS 3 Zrotation Yrotation Xrotation
			JOINT LeftKnee
			{
				OFFSET 2.34532 -6.44371 0.00000
				CHANNELS 3 Zrotation Yrotation Xrotation
				JOINT LeftAnkle
				{
					OFFSET 2.74224 -7.53425 0.00000
					CHANNELS 3 Zrotation Yrotation Xrotation
					JOINT LeftToe
					{
						OFFSET 0.17032 -0.46794 2.08086
						CHANNELS 3 Zrotation Yrotation Xrotation
						End Site
						{
							OFFSET 0.00000 -0.00000 1.07476
						}
					}
				}
			}
		}
	}
	JOINT RHipJoint
	{
		OFFSET 0 0 0
		CHANNELS 3 Zrotation Yrotation Xrotation
		JOINT RightHip
		{
			OFFSET -1.55811 -1.77917 0.70989
			CHANNELS 3 Zrotation Yrotation Xrotation
			JOINT RightKnee
			{
				OFFSET -2.33243 -6.40830 0.00000
				CHANNELS 3 Zrotation Yrotation Xrotation
				JOINT RightAnkle
				{
					OFFSET -2.78798 -7.65993 0.00000
					CHANNELS 3 Zrotation Yrotation Xrotation
					JOINT RightToe
					{
						OFFSET -0.22707 -0.62388 2.04059
						CHANNELS 3 Zrotation Yrotation Xrotation
						End Site
						{
							OFFSET -0.00000 -0.00000 1.07030
						}
					}
				}
			}
		}
	}
	JOINT lowerback
	{
		OFFSET 0 0 0
		CHANNELS 3 Zrotation Yrotation Xrotation
		JOINT Chest
		{
			OFFSET 0.02203 1.91565 0.07161
			CHANNELS 3 Zrotation Yrotation Xrotation
			JOINT Chest2
			{
				OFFSET 0.01740 1.90525 0.11636
				CHANNELS 3 Zrotation Yrotation Xrotation
				JOINT lowerneck
				{
					OFFSET 0 0 0
					CHANNELS 3 Zrotation Yrotation Xrotation
					JOINT Neck
					{
						OFFSET -0.10841 1.83566 0.05067
						CHANNELS 3 Zrotation Yrotation Xrotation
						JOINT Head
						{
							OFFSET 0.06601 1.74760 -0.50505
							CHANNELS 3 Zrotation Yrotation Xrotation
							End Site
							{
								OFFSET 0.03102 1.85215 -0.17697
							}
						}
					}
				}
				JOINT LeftCollar
				{
					OFFSET 0 0 0
					CHANNELS 3 Zrotation Yrotation Xrotation
					JOINT LeftShoulder
					{
						OFFSET 2.87059 1.35470 0.16111
CHANNELS 3 Zrotation Xrotation Yrotation
						JOINT LeftElbow
						{
OFFSET 0 -5.435920 0.000000
CHANNELS 3 Zrotation Xrotation Yrotation
							JOINT LeftWrist
							{
OFFSET 0 -3.254600 0.000000
CHANNELS 3 Zrotation Xrotation Yrotation
								JOINT lhand
								{
									OFFSET 0 0 0
CHANNELS 3 Zrotation Xrotation Yrotation
									JOINT LFingers
									{
OFFSET 0 -0.498240 0.000000
CHANNELS 3 Zrotation Xrotation Yrotation
										End Site
										{
OFFSET 0 -0.401700 0.000000
										}
									}
								}
								JOINT LThumb
								{
OFFSET 0 0.000000 0.000000
CHANNELS 3 Zrotation Xrotation Yrotation
									End Site
									{
OFFSET 0 -0.407830 0.407830
									}
								}
							}
						}
					}
				}
				JOINT RightCollar
				{
					OFFSET 0 0 0
					CHANNELS 3 Zrotation Yrotation Xrotation
					JOINT RightShoulder
					{
						OFFSET -2.86643 1.23488 0.45957
CHANNELS 3 Zrotation Xrotation Yrotation
						JOINT RightElbow
						{
OFFSET 0 -5.338300 0.000000
CHANNELS 3 Zrotation Xrotation Yrotation
							JOINT RightWrist
							{
OFFSET 0 -3.231480 0.000000
CHANNELS 3 Zrotation Xrotation Yrotation
								JOINT rhand
								{
									OFFSET 0 0 0
CHANNELS 3 Zrotation Xrotation Yrotation
									JOINT RFingers
									{
OFFSET 0 -0.463640 0.000000
CHANNELS 3 Zrotation Xrotation Yrotation
										End Site
										{
OFFSET 0 -0.373800 0.000000
										}
									}
								}
								JOINT RThumb
								{
OFFSET 0 0.000000 0.000000
CHANNELS 3 Zrotation Xrotation Yrotation
									End Site
									{
OFFSET 0 -0.379510 0.379510
									}
								}
							}
						}
					}
				}
			}
		}
	}
}
MOTION
Frames: 5
Frame Time: 0.008333333333333333
3.318033 19.831089 0.025673 -8.726330 -5.977086 14.168860 0.000000 0.000000 0.000000 -15.066490 -9.424672 -14.547263 0.545301 4.729903 13.140042 0.354997 7.443383 11.043546 0.169941 -2.655413 -7.320775 0.000000 0.000000 0.000000 7.180016 22.050044 -97.969436 -35.669297 -12.587983 142.154993 -0.200496 -1.015731 8.162246 -0.131607 2.338417 -6.441866 4.019352 -1.217795 2.651082 3.268413 -1.207156 -5.147008 1.272574 -0.716087 -6.877652 -5.066788 -1.482975 -15.864761 5.342445 -2.029170 20.950413 2.433168 -0.768688 9.320061 0.000000 0.000000 0.000000 12.270627 11.728126 -46.486360 35.424519 -45.110860 15.114033 35.911942 -22.220253 32.076073 0.000000 0.000000 0.000000 -7.125000 0.000000 0.000000 2.230008 -7.727979 2.511761 0.000000 0.000000 0.000000 -11.666008 16.278703 33.121108 -43.057862 -49.779202 -20.745363 -32.378965 29.488079 41.707353 0.000000 0.000000 0.000000 7.125000 0.000000 0.000000 8.728247 76.384696 -6.436553
3.336422 19.642641 0.043931 -8.809815 -6.672391 14.321887 0.000000 0.000000 0.000000 -14.554532 -10.506492 -15.715897 0.775975 5.623601 15.696438 0.182701 5.702749 8.032345 0.370735 -3.910736 -10.825750 0.000000 0.000000 0.000000 8.514804 23.832013 -95.594597 -35.450854 -12.857076 141.163821 -0.189932 -2.186373 7.766128 -0.061637 1.600403 -4.402633 4.248601 -0.977155 2.176519 2.956957 -0.918404 -5.185761 0.783279 -0.592968 -6.650361 -4.595171 -1.585086 -15.587798 4.983226 -2.189164 20.118503 2.198292 -0.849212 8.982048 0.000000 0.000000 0.000000 11.074339 12.493168 -45.241205 32.521886 -42.958150 13.095499 35.532754 -21.164331 31.945138 0.000000 0.000000 0.000000 -7.125000 0.000000 0.000000 2.054061 -7.458805 2.304745 0.000000 0.000000 0.000000 -10.570196 15.328801 33.595628 -40.430261 -48.321695 -18.760267 -31.602766 29.415808 43.015814 0.000000 0.000000 0.000000 7.125000 0.000000 0.000000 12.651371 77.321114 -9.593743
3.371261 19.311591 0.091660 -8.997077 -7.980751 14.658915 0.000000 0.000000 0.000000 -14.544387 -9.943038 -17.275652 1.048067 6.508974 18.269085 0.264714 6.850928 9.625478 0.130537 -2.035221 -5.615061 0.000000 0.000000 0.000000 9.325908 26.696670 -93.053311 -35.019708 -13.361339 139.263035 -0.139667 -3.402406 6.696402 -0.049204 1.429037 -3.930134 4.957560 -0.502810 1.552748 2.507643 -0.312536 -5.204643 -0.137137 -0.338080 -6.309304 -3.980103 -1.559202 -15.910562 4.472517 -2.161651 19.591089 1.917588 -0.840442 8.846839 0.000000 0.000000 0.000000 10.484443 13.120769 -43.708275 30.163931 -41.031674 11.517717 34.678203 -19.525422 32.900201 0.000000 0.000000 0.000000 -7.125000 0.000000 0.000000 1.359537 -8.202155 1.540173 0.000000 0.000000 0.000000 -9.318839 14.364291 33.643409 -38.463069 -47.132216 -17.304294 -29.441238 27.484005 41.951689 0.000000 0.000000 0.000000 7.125000 0.000000 0.000000 14.126099 75.515395 -10.192047
3.411176 18.804054 0.124409 -8.019314 -9.844018 15.329067 0.000000 0.000000 0.000000 -16.487296 -7.369993 -20.296842 1.502741 7.739573 21.927475 0.118469 4.182299 6.284404 0.353068 -3.812994 -10.551763 0.000000 0.000000 0.000000 7.816176 28.989985 -92.094285 -34.642805 -13.774969 137.656322 -0.060298 -3.761443 4.756739 -0.050371 1.447032 -3.979832 4.477368 0.174402 0.407638 1.772135 0.455119 -5.051159 -0.689181 0.062971 -5.448241 -4.094421 -1.722909 -17.431974 4.548600 -2.317141 19.560842 1.940737 -0.893842 9.124042 0.000000 0.000000 0.000000 10.524314 12.644025 -41.957720 28.942077 -39.969196 10.723497 33.251356 -17.196750 34.347420 0.000000 0.000000 0.000000 -7.125000 0.000000 0.000000 0.243679 -9.274027 0.279637 0.000000 0.000000 0.000000 -8.433295 13.031629 33.538701 -38.040109 -46.864914 -16.994877 -29.200896 26.557740 41.280991 0.000000 0.000000 0.000000 7.125000 0.000000 0.000000 13.276969 74.803678 -9.370562
3.447498 18.206470 0.110569 -6.981258 -11.389990 15.985922 0.000000 0.000000 0.000000 -18.235070 -5.244993 -25.059973 2.559091 9.937305 28.780252 0.038586 -1.103733 -3.241028 0.424670 -4.177157 -11.576472 0.000000 0.000000 0.000000 5.910337 30.845035 -91.979763 -34.233865 -14.197560 135.964812 0.008609 -4.856624 3.092966 -0.091177 1.914136 -5.269572 4.143924 0.704896 -0.057401 1.024291 1.102843 -5.318324 -1.306424 0.378156 -5.423278 -4.142236 -1.848064 -16.934087 4.361959 -2.403965 18.158535 1.862439 -0.966344 8.557027 0.000000 0.000000 0.000000 11.298918 13.073770 -40.239460 29.666953 -40.605682 11.192402 33.799478 -16.324304 36.142473 0.000000 0.000000 0.000000 -7.125000 0.000000 0.000000 0.089520 -11.333259 0.106087 0.000000 0.000000 0.000000 -7.807678 12.489955 33.944409 -38.680827 -47.268606 -17.463958 -30.674500 28.670423 42.433211 0.000000 0.000000 0.000000 7.125000 0.000000 0.000000 13.038002 76.426322 -9.646554
